<svg width="58" height="58" viewBox="0 0 58 58" fill="none" xmlns="http://www.w3.org/2000/svg">
<g filter="url(#filter0_d_293_491)">
<path fill-rule="evenodd" clip-rule="evenodd" d="M15.6667 0.134447C15.1554 0.295598 14.2834 1.19855 14.1267 1.72919C13.9475 2.33567 13.9475 10.9947 14.1267 11.6012C14.2957 12.1734 15.1586 13.0363 15.7308 13.2054C16.0096 13.2877 16.9482 13.3321 18.4131 13.3321H20.6667V14.1654V14.9988H15.139C11.8007 14.9988 9.53719 15.0385 9.42417 15.0989C9.32125 15.154 8.24083 16.7947 7.02333 18.7449L4.80969 22.2906L4.85021 23.7231C4.88823 25.0689 4.91042 25.1974 5.21771 25.8513C5.65948 26.7913 6.26156 27.4177 7.15125 27.8628C7.55323 28.0638 7.94615 28.2284 8.02437 28.2284C8.14344 28.2284 8.16667 29.5963 8.16667 36.6141V44.9998H7.16313C5.83229 44.9998 5.42156 45.1338 4.77771 45.7776C4.11948 46.4358 4 46.8271 4 48.324C4 49.4216 4.01469 49.5033 4.25573 49.7443L4.51135 50H29H53.4886L53.7443 49.7443C53.9853 49.5033 54 49.4216 54 48.324C54 46.8271 53.8805 46.4358 53.2223 45.7776C52.5784 45.1338 52.1677 44.9998 50.8369 44.9998H49.8333V36.6141C49.8333 29.5963 49.8566 28.2284 49.9756 28.2284C50.0539 28.2284 50.4468 28.0638 50.8487 27.8628C51.7384 27.4177 52.3405 26.7913 52.7823 25.8513C53.0896 25.1974 53.1118 25.0689 53.1498 23.7231L53.1903 22.2906L50.9767 18.7449C49.7592 16.7947 48.6787 15.154 48.5758 15.0989C48.4628 15.0385 46.1993 14.9988 42.861 14.9988H37.3333V14.1654V13.3321H39.5869C41.0518 13.3321 41.9904 13.2877 42.2692 13.2054C42.8414 13.0363 43.7043 12.1734 43.8733 11.6012C44.0525 10.9947 44.0525 2.33567 43.8733 1.72919C43.7043 1.15698 42.8414 0.294036 42.2692 0.124967C41.6848 -0.0476428 16.2157 -0.03858 15.6667 0.134447ZM42.0776 1.92076L42.3333 2.17639V6.66519V11.154L42.0776 11.4096L41.822 11.6654H29H16.178L15.9224 11.4096L15.6667 11.154V6.66519V2.17639L15.9224 1.92076L16.178 1.66502H29H41.822L42.0776 1.92076ZM19.8333 2.63453C19.3221 2.79568 18.4501 3.69863 18.2933 4.22927C18.0048 5.20597 18.2082 5.98465 18.9444 6.72082C19.4816 7.25792 20.0115 7.49855 20.6574 7.49855C21.0952 7.49855 21.5 7.89898 21.5 8.33191C21.5 8.76016 21.0949 9.16528 20.6667 9.16528C20.2384 9.16528 19.8333 8.76016 19.8333 8.33191C19.8333 7.60366 18.9391 7.2375 18.4224 7.75429C17.9252 8.25139 18.1554 9.26517 18.9444 10.0543C19.4887 10.5987 20.0114 10.832 20.6863 10.832C21.9744 10.832 23.1667 9.63029 23.1667 8.33191C23.1667 7.03812 21.9744 5.83183 20.6954 5.83183C19.9391 5.83183 19.56 4.94982 20.0891 4.42084C20.6057 3.90405 21.5 4.27021 21.5 4.99847C21.5 5.72672 22.3943 6.09288 22.9109 5.57609C23.4081 5.07899 23.1779 4.06521 22.389 3.27612C21.6559 2.54317 20.8028 2.329 19.8333 2.63453ZM24.2557 2.75412L24 3.00975V6.66519V10.3206L24.2557 10.5763C24.594 10.9146 25.0727 10.9146 25.4109 10.5763C25.6573 10.33 25.6667 10.2689 25.6667 8.90954V7.49855H26.5H27.3333V8.90954C27.3333 10.2689 27.3427 10.33 27.5891 10.5763C27.7502 10.7375 27.9637 10.832 28.1667 10.832C28.3696 10.832 28.5831 10.7375 28.7443 10.5763L29 10.3206V6.66519V3.00975L28.7443 2.75412C28.406 2.41577 27.9273 2.41577 27.5891 2.75412C27.3427 3.00038 27.3333 3.06153 27.3333 4.42084V5.83183H26.5H25.6667V4.42084C25.6667 3.06153 25.6573 3.00038 25.4109 2.75412C25.2498 2.59286 25.0362 2.49838 24.8333 2.49838C24.6304 2.49838 24.4169 2.59286 24.2557 2.75412ZM31.5 2.63453C30.9887 2.79568 30.1168 3.69863 29.96 4.22927C29.8798 4.50085 29.8333 5.39379 29.8333 6.66519C29.8333 9.07215 29.8942 9.33736 30.611 10.0543C31.3745 10.8177 32.1893 11.0104 33.199 10.6664C33.7882 10.4655 34.528 9.69144 34.7095 9.08569C34.7866 8.82839 34.8333 7.91461 34.8333 6.66519C34.8333 5.41577 34.7866 4.50199 34.7095 4.24469C34.528 3.63894 33.7882 2.86485 33.199 2.66401C32.6484 2.4764 32.0354 2.46578 31.5 2.63453ZM35.9224 2.75412L35.6667 3.00975V6.66519V10.3206L35.9224 10.5763C36.2606 10.9146 36.7394 10.9146 37.0776 10.5763C37.324 10.33 37.3333 10.2689 37.3333 8.90954V7.49855H37.9398C38.8445 7.49855 39.4402 7.25417 39.9686 6.66644C40.9373 5.58901 40.9069 4.29407 39.889 3.27612C39.2307 2.61786 38.8395 2.49838 37.3426 2.49838C36.245 2.49838 36.1633 2.51307 35.9224 2.75412ZM32.9109 4.42084C33.1646 4.67439 33.1667 4.69262 33.1667 6.66519C33.1667 8.63776 33.1646 8.65599 32.9109 8.90954C32.7498 9.07079 32.5362 9.16528 32.3333 9.16528C32.1304 9.16528 31.9169 9.07079 31.7557 8.90954C31.5021 8.65599 31.5 8.63776 31.5 6.66519C31.5 4.69262 31.5021 4.67439 31.7557 4.42084C31.9169 4.25959 32.1304 4.16511 32.3333 4.16511C32.5362 4.16511 32.7498 4.25959 32.9109 4.42084ZM38.7443 4.42084C38.9055 4.58199 39 4.79554 39 4.99847C39 5.53036 38.606 5.83183 37.9109 5.83183H37.3333V4.99847V4.16511H37.9109C38.3854 4.16511 38.5344 4.21084 38.7443 4.42084ZM35.6667 14.1654V14.9988H29H22.3333V14.1654V13.3321H29H35.6667V14.1654ZM13.0625 19.1656L11.8117 21.6657H9.52042C8.26021 21.6657 7.22917 21.6427 7.22917 21.6146C7.22917 21.5864 7.91698 20.4614 8.75771 19.1145L10.2862 16.6655H12.2998H14.3133L13.0625 19.1656ZM20.25 16.735C20.25 16.7731 19.8402 17.8982 19.3394 19.2351L18.4288 21.6657H16.0577H13.6867L14.9375 19.1656L16.1883 16.6655H18.2192C19.3361 16.6655 20.25 16.6968 20.25 16.735ZM25.5202 17.0562C25.4869 17.2711 25.3653 18.2203 25.25 19.1656C25.1347 20.111 25.0131 21.0603 24.9798 21.2751L24.9192 21.6657H22.5846C21.3005 21.6657 20.25 21.6344 20.25 21.5962C20.25 21.5581 20.6598 20.4331 21.1606 19.0961L22.0712 16.6655H23.826H25.5808L25.5202 17.0562ZM30.8131 17.0562C30.8465 17.2711 30.968 18.2203 31.0833 19.1656C31.1986 20.111 31.3202 21.0603 31.3535 21.2751L31.4142 21.6657H29H26.5858L26.6465 21.2751C26.6798 21.0603 26.8014 20.111 26.9167 19.1656C27.032 18.2203 27.1535 17.2711 27.1869 17.0562L27.2475 16.6655H29H30.7525L30.8131 17.0562ZM36.8394 19.0961C37.3402 20.4331 37.75 21.5581 37.75 21.5962C37.75 21.6344 36.6995 21.6657 35.4154 21.6657H33.0808L33.0202 21.2751C32.9869 21.0603 32.8653 20.111 32.75 19.1656C32.6347 18.2203 32.5131 17.2711 32.4798 17.0562L32.4192 16.6655H34.174H35.9287L36.8394 19.0961ZM43.0625 19.1656L44.3133 21.6657H41.9423H39.5713L38.6606 19.2351C38.1598 17.8982 37.75 16.7731 37.75 16.735C37.75 16.6968 38.6639 16.6655 39.7808 16.6655H41.8117L43.0625 19.1656ZM49.2423 19.1145C50.083 20.4614 50.7708 21.5864 50.7708 21.6146C50.7708 21.6427 49.7398 21.6657 48.4796 21.6657H46.1883L44.9375 19.1656L43.6867 16.6655H45.7002H47.7137L49.2423 19.1145ZM11.5 23.9193C11.5 24.2421 11.443 24.6991 11.3733 24.935C11.2043 25.5072 10.3414 26.3701 9.76917 26.5392C8.7925 26.8278 8.01385 26.6243 7.27771 25.8881C6.68729 25.2977 6.5 24.8235 6.5 23.9193V23.3324H9H11.5V23.9193ZM18.1667 23.9193C18.1667 24.8235 17.9794 25.2977 17.389 25.8881C16.8495 26.4276 16.3219 26.6659 15.6667 26.6659C15.0115 26.6659 14.4839 26.4276 13.9444 25.8881C13.354 25.2977 13.1667 24.8235 13.1667 23.9193V23.3324H15.6667H18.1667V23.9193ZM24.8333 23.9193C24.8333 24.8235 24.646 25.2977 24.0556 25.8881C23.5161 26.4276 22.9885 26.6659 22.3333 26.6659C21.6781 26.6659 21.1505 26.4276 20.611 25.8881C20.0206 25.2977 19.8333 24.8235 19.8333 23.9193V23.3324H22.3333H24.8333V23.9193ZM31.5 23.9193C31.5 24.2421 31.443 24.6991 31.3733 24.935C31.2043 25.5072 30.3414 26.3701 29.7692 26.5392C28.7925 26.8278 28.0139 26.6243 27.2777 25.8881C26.6873 25.2977 26.5 24.8235 26.5 23.9193V23.3324H29H31.5V23.9193ZM38.1667 23.9193C38.1667 24.2421 38.1097 24.6991 38.04 24.935C37.8709 25.5072 37.008 26.3701 36.4358 26.5392C35.4592 26.8278 34.6805 26.6243 33.9444 25.8881C33.354 25.2977 33.1667 24.8235 33.1667 23.9193V23.3324H35.6667H38.1667V23.9193ZM44.8333 23.9193C44.8333 24.2421 44.7764 24.6991 44.7067 24.935C44.5376 25.5072 43.6747 26.3701 43.1025 26.5392C42.1258 26.8278 41.3472 26.6243 40.611 25.8881C40.0206 25.2977 39.8333 24.8235 39.8333 23.9193V23.3324H42.3333H44.8333V23.9193ZM51.5 23.9193C51.5 24.2421 51.443 24.6991 51.3733 24.935C51.2043 25.5072 50.3414 26.3701 49.7692 26.5392C48.7925 26.8278 48.0139 26.6243 47.2777 25.8881C46.6873 25.2977 46.5 24.8235 46.5 23.9193V23.3324H49H51.5V23.9193ZM12.7982 27.147C13.0744 27.4116 13.6101 27.775 13.9886 27.9544C14.6097 28.2486 14.774 28.2805 15.6667 28.2805C16.5594 28.2805 16.7236 28.2486 17.3447 27.9544C17.7232 27.775 18.2506 27.4196 18.5166 27.1648L19 26.7016L19.4834 27.1648C19.7494 27.4196 20.2768 27.775 20.6553 27.9544C21.2764 28.2486 21.4406 28.2805 22.3333 28.2805C23.226 28.2805 23.3903 28.2486 24.0114 27.9544C24.3899 27.775 24.9173 27.4196 25.1832 27.1648L25.6667 26.7016L26.1501 27.1648C26.416 27.4196 26.9434 27.775 27.322 27.9544C27.943 28.2486 28.1073 28.2805 29 28.2805C29.8927 28.2805 30.057 28.2486 30.678 27.9544C31.0566 27.775 31.584 27.4196 31.8499 27.1648L32.3333 26.7016L32.8168 27.1648C33.0827 27.4196 33.6101 27.775 33.9886 27.9544C34.6097 28.2486 34.774 28.2805 35.6667 28.2805C36.5594 28.2805 36.7236 28.2486 37.3447 27.9544C37.7232 27.775 38.2506 27.4196 38.5166 27.1648L39 26.7016L39.4834 27.1648C39.7494 27.4196 40.2768 27.775 40.6553 27.9544C41.2764 28.2486 41.4406 28.2805 42.3333 28.2805C43.226 28.2805 43.3903 28.2486 44.0114 27.9544C44.3899 27.775 44.9173 27.4196 45.1832 27.1648L45.6667 26.7016L46.1481 27.163C46.5905 27.5867 47.7272 28.2281 48.0365 28.2283C48.1396 28.2284 48.1667 29.975 48.1667 36.6141V44.9998H44.8333H41.5V39.4128C41.5 35.3306 41.4658 33.7102 41.3733 33.3969C41.2043 32.8247 40.3414 31.9618 39.7692 31.7927C39.1506 31.61 18.8494 31.61 18.2308 31.7927C17.6586 31.9618 16.7957 32.8247 16.6267 33.3969C16.5342 33.7102 16.5 35.3306 16.5 39.4128V44.9998H13.1667H9.83333V36.6386V28.2773L10.3296 28.101C10.952 27.88 11.7412 27.3621 12.0473 26.974C12.1759 26.8109 12.2846 26.6748 12.2886 26.6716C12.2927 26.6685 12.522 26.8823 12.7982 27.147ZM28.1667 39.1663V44.9998H23.1667H18.1667V39.422V33.8441L18.4224 33.5885L18.678 33.3328H23.4224H28.1667V39.1663ZM39.5776 33.5885L39.8333 33.8441V39.422V44.9998H34.8333H29.8333V39.1663V33.3328H34.5776H39.322L39.5776 33.5885ZM25.9224 38.5887C25.699 38.812 25.6667 38.9376 25.6667 39.583C25.6667 40.2283 25.699 40.3539 25.9224 40.5773C26.0835 40.7385 26.2971 40.833 26.5 40.833C26.7029 40.833 26.9165 40.7385 27.0776 40.5773C27.301 40.3539 27.3333 40.2283 27.3333 39.583C27.3333 38.9376 27.301 38.812 27.0776 38.5887C26.9165 38.4274 26.7029 38.3329 26.5 38.3329C26.2971 38.3329 26.0835 38.4274 25.9224 38.5887ZM30.9224 38.5887C30.699 38.812 30.6667 38.9376 30.6667 39.583C30.6667 40.2283 30.699 40.3539 30.9224 40.5773C31.0835 40.7385 31.2971 40.833 31.5 40.833C31.7029 40.833 31.9165 40.7385 32.0776 40.5773C32.301 40.3539 32.3333 40.2283 32.3333 39.583C32.3333 38.9376 32.301 38.812 32.0776 38.5887C31.9165 38.4274 31.7029 38.3329 31.5 38.3329C31.2971 38.3329 31.0835 38.4274 30.9224 38.5887ZM52.0776 46.9223C52.2876 47.1322 52.3333 47.2812 52.3333 47.7557V48.3333H29H5.66667V47.7557C5.66667 47.2812 5.7124 47.1322 5.9224 46.9223L6.17802 46.6666H29H51.822L52.0776 46.9223Z" fill="#151A32"/>
</g>
<defs>
<filter id="filter0_d_293_491" x="0" y="0" width="58" height="58" filterUnits="userSpaceOnUse" color-interpolation-filters="sRGB">
<feFlood flood-opacity="0" result="BackgroundImageFix"/>
<feColorMatrix in="SourceAlpha" type="matrix" values="0 0 0 0 0 0 0 0 0 0 0 0 0 0 0 0 0 0 127 0" result="hardAlpha"/>
<feOffset dy="4"/>
<feGaussianBlur stdDeviation="2"/>
<feComposite in2="hardAlpha" operator="out"/>
<feColorMatrix type="matrix" values="0 0 0 0 0 0 0 0 0 0 0 0 0 0 0 0 0 0 0.25 0"/>
<feBlend mode="normal" in2="BackgroundImageFix" result="effect1_dropShadow_293_491"/>
<feBlend mode="normal" in="SourceGraphic" in2="effect1_dropShadow_293_491" result="shape"/>
</filter>
</defs>
</svg>
